<mxfile host="app.diagrams.net" modified="2024-04-23T17:59:23.938Z" agent="Mozilla/5.0 (Windows NT 10.0; Win64; x64) AppleWebKit/537.36 (KHTML, like Gecko) Chrome/120.0.0.0 Safari/537.36" etag="tIXAyj3ntNWvZ7YraZCr" version="24.2.8" type="github">
  <diagram id="R2lEEEUBdFMjLlhIrx00" name="Page-1">
    <mxGraphModel dx="1051" dy="846" grid="1" gridSize="10" guides="1" tooltips="1" connect="1" arrows="1" fold="1" page="1" pageScale="1" pageWidth="850" pageHeight="1100" math="0" shadow="0" extFonts="Permanent Marker^https://fonts.googleapis.com/css?family=Permanent+Marker">
      <root>
        <mxCell id="0" />
        <mxCell id="1" parent="0" />
        <mxCell id="P949X-H24-wHW-zOsjRB-10" style="edgeStyle=orthogonalEdgeStyle;rounded=0;orthogonalLoop=1;jettySize=auto;html=1;exitX=0;exitY=0;exitDx=0;exitDy=0;entryX=0.5;entryY=1;entryDx=0;entryDy=0;" parent="1" source="P949X-H24-wHW-zOsjRB-1" target="P949X-H24-wHW-zOsjRB-11" edge="1">
          <mxGeometry relative="1" as="geometry">
            <mxPoint x="125" y="180" as="targetPoint" />
          </mxGeometry>
        </mxCell>
        <mxCell id="P949X-H24-wHW-zOsjRB-26" style="edgeStyle=orthogonalEdgeStyle;rounded=0;orthogonalLoop=1;jettySize=auto;html=1;exitX=0.5;exitY=1;exitDx=0;exitDy=0;entryX=0.5;entryY=0;entryDx=0;entryDy=0;" parent="1" source="P949X-H24-wHW-zOsjRB-1" target="P949X-H24-wHW-zOsjRB-25" edge="1">
          <mxGeometry relative="1" as="geometry" />
        </mxCell>
        <mxCell id="Qb6-1GNwZZT-U69SmPjN-2" style="edgeStyle=orthogonalEdgeStyle;rounded=0;orthogonalLoop=1;jettySize=auto;html=1;exitX=1;exitY=0;exitDx=0;exitDy=0;entryX=0.5;entryY=1;entryDx=0;entryDy=0;" edge="1" parent="1" source="P949X-H24-wHW-zOsjRB-1" target="Qb6-1GNwZZT-U69SmPjN-1">
          <mxGeometry relative="1" as="geometry" />
        </mxCell>
        <mxCell id="P949X-H24-wHW-zOsjRB-1" value="Compra" style="rounded=0;whiteSpace=wrap;html=1;" parent="1" vertex="1">
          <mxGeometry x="95" y="230" width="160" height="70" as="geometry" />
        </mxCell>
        <mxCell id="P949X-H24-wHW-zOsjRB-17" style="edgeStyle=orthogonalEdgeStyle;rounded=0;orthogonalLoop=1;jettySize=auto;html=1;exitX=1;exitY=0;exitDx=0;exitDy=0;entryX=0.5;entryY=1;entryDx=0;entryDy=0;" parent="1" source="P949X-H24-wHW-zOsjRB-2" target="P949X-H24-wHW-zOsjRB-16" edge="1">
          <mxGeometry relative="1" as="geometry" />
        </mxCell>
        <mxCell id="P949X-H24-wHW-zOsjRB-20" style="edgeStyle=orthogonalEdgeStyle;rounded=0;orthogonalLoop=1;jettySize=auto;html=1;exitX=0;exitY=0;exitDx=0;exitDy=0;entryX=0.5;entryY=1;entryDx=0;entryDy=0;" parent="1" source="P949X-H24-wHW-zOsjRB-2" target="P949X-H24-wHW-zOsjRB-19" edge="1">
          <mxGeometry relative="1" as="geometry" />
        </mxCell>
        <mxCell id="P949X-H24-wHW-zOsjRB-21" style="edgeStyle=orthogonalEdgeStyle;rounded=0;orthogonalLoop=1;jettySize=auto;html=1;exitX=0.25;exitY=0;exitDx=0;exitDy=0;entryX=0.5;entryY=1;entryDx=0;entryDy=0;" parent="1" source="P949X-H24-wHW-zOsjRB-2" target="P949X-H24-wHW-zOsjRB-22" edge="1">
          <mxGeometry relative="1" as="geometry">
            <mxPoint x="670" y="170" as="targetPoint" />
          </mxGeometry>
        </mxCell>
        <mxCell id="P949X-H24-wHW-zOsjRB-23" style="edgeStyle=orthogonalEdgeStyle;rounded=0;orthogonalLoop=1;jettySize=auto;html=1;exitX=0.75;exitY=0;exitDx=0;exitDy=0;entryX=0.5;entryY=1;entryDx=0;entryDy=0;" parent="1" source="P949X-H24-wHW-zOsjRB-2" target="P949X-H24-wHW-zOsjRB-24" edge="1">
          <mxGeometry relative="1" as="geometry">
            <mxPoint x="720" y="170" as="targetPoint" />
          </mxGeometry>
        </mxCell>
        <mxCell id="P949X-H24-wHW-zOsjRB-29" style="edgeStyle=orthogonalEdgeStyle;rounded=0;orthogonalLoop=1;jettySize=auto;html=1;exitX=0;exitY=0.5;exitDx=0;exitDy=0;" parent="1" source="P949X-H24-wHW-zOsjRB-2" target="P949X-H24-wHW-zOsjRB-28" edge="1">
          <mxGeometry relative="1" as="geometry" />
        </mxCell>
        <mxCell id="Qb6-1GNwZZT-U69SmPjN-3" style="edgeStyle=orthogonalEdgeStyle;rounded=0;orthogonalLoop=1;jettySize=auto;html=1;exitX=0.5;exitY=1;exitDx=0;exitDy=0;entryX=0.5;entryY=0;entryDx=0;entryDy=0;" edge="1" parent="1" source="P949X-H24-wHW-zOsjRB-2" target="Qb6-1GNwZZT-U69SmPjN-4">
          <mxGeometry relative="1" as="geometry">
            <mxPoint x="660" y="360" as="targetPoint" />
          </mxGeometry>
        </mxCell>
        <mxCell id="P949X-H24-wHW-zOsjRB-2" value="Materiais" style="rounded=0;whiteSpace=wrap;html=1;" parent="1" vertex="1">
          <mxGeometry x="620" y="230" width="160" height="70" as="geometry" />
        </mxCell>
        <mxCell id="P949X-H24-wHW-zOsjRB-4" style="edgeStyle=orthogonalEdgeStyle;rounded=0;orthogonalLoop=1;jettySize=auto;html=1;exitX=0.25;exitY=1;exitDx=0;exitDy=0;entryX=0.5;entryY=0;entryDx=0;entryDy=0;" parent="1" source="P949X-H24-wHW-zOsjRB-3" target="P949X-H24-wHW-zOsjRB-5" edge="1">
          <mxGeometry relative="1" as="geometry">
            <mxPoint x="125" y="665" as="targetPoint" />
          </mxGeometry>
        </mxCell>
        <mxCell id="P949X-H24-wHW-zOsjRB-6" style="edgeStyle=orthogonalEdgeStyle;rounded=0;orthogonalLoop=1;jettySize=auto;html=1;exitX=0.5;exitY=1;exitDx=0;exitDy=0;entryX=0.5;entryY=0;entryDx=0;entryDy=0;" parent="1" source="P949X-H24-wHW-zOsjRB-3" target="P949X-H24-wHW-zOsjRB-7" edge="1">
          <mxGeometry relative="1" as="geometry">
            <mxPoint x="175" y="665" as="targetPoint" />
          </mxGeometry>
        </mxCell>
        <mxCell id="P949X-H24-wHW-zOsjRB-8" style="edgeStyle=orthogonalEdgeStyle;rounded=0;orthogonalLoop=1;jettySize=auto;html=1;exitX=0.75;exitY=1;exitDx=0;exitDy=0;" parent="1" source="P949X-H24-wHW-zOsjRB-3" target="P949X-H24-wHW-zOsjRB-9" edge="1">
          <mxGeometry relative="1" as="geometry">
            <mxPoint x="245" y="665" as="targetPoint" />
          </mxGeometry>
        </mxCell>
        <mxCell id="P949X-H24-wHW-zOsjRB-3" value="Fornecedor" style="rounded=0;whiteSpace=wrap;html=1;" parent="1" vertex="1">
          <mxGeometry x="100" y="540" width="150" height="70" as="geometry" />
        </mxCell>
        <mxCell id="P949X-H24-wHW-zOsjRB-5" value="Código&lt;br&gt;Forne" style="ellipse;whiteSpace=wrap;html=1;aspect=fixed;" parent="1" vertex="1">
          <mxGeometry x="85" y="665" width="50" height="50" as="geometry" />
        </mxCell>
        <mxCell id="P949X-H24-wHW-zOsjRB-7" value="Nome&lt;br&gt;Forne" style="ellipse;whiteSpace=wrap;html=1;aspect=fixed;" parent="1" vertex="1">
          <mxGeometry x="150" y="665" width="50" height="50" as="geometry" />
        </mxCell>
        <mxCell id="P949X-H24-wHW-zOsjRB-9" value="Endereço&lt;br&gt;Forne" style="ellipse;whiteSpace=wrap;html=1;aspect=fixed;" parent="1" vertex="1">
          <mxGeometry x="215" y="665" width="50" height="50" as="geometry" />
        </mxCell>
        <mxCell id="P949X-H24-wHW-zOsjRB-11" value="Código&lt;br&gt;Ordem" style="ellipse;whiteSpace=wrap;html=1;aspect=fixed;" parent="1" vertex="1">
          <mxGeometry x="70" y="110" width="50" height="50" as="geometry" />
        </mxCell>
        <mxCell id="P949X-H24-wHW-zOsjRB-16" value="Desc" style="ellipse;whiteSpace=wrap;html=1;aspect=fixed;" parent="1" vertex="1">
          <mxGeometry x="770" y="120" width="50" height="50" as="geometry" />
        </mxCell>
        <mxCell id="P949X-H24-wHW-zOsjRB-19" value="Código" style="ellipse;whiteSpace=wrap;html=1;aspect=fixed;" parent="1" vertex="1">
          <mxGeometry x="580" y="120" width="50" height="50" as="geometry" />
        </mxCell>
        <mxCell id="P949X-H24-wHW-zOsjRB-22" value="Quant" style="ellipse;whiteSpace=wrap;html=1;aspect=fixed;" parent="1" vertex="1">
          <mxGeometry x="640" y="120" width="50" height="50" as="geometry" />
        </mxCell>
        <mxCell id="P949X-H24-wHW-zOsjRB-24" value="Valor&lt;div&gt;Unit&lt;/div&gt;" style="ellipse;whiteSpace=wrap;html=1;aspect=fixed;" parent="1" vertex="1">
          <mxGeometry x="710" y="120" width="50" height="50" as="geometry" />
        </mxCell>
        <mxCell id="P949X-H24-wHW-zOsjRB-27" style="edgeStyle=orthogonalEdgeStyle;rounded=0;orthogonalLoop=1;jettySize=auto;html=1;exitX=0.5;exitY=1;exitDx=0;exitDy=0;entryX=0.5;entryY=0;entryDx=0;entryDy=0;" parent="1" source="P949X-H24-wHW-zOsjRB-25" target="P949X-H24-wHW-zOsjRB-3" edge="1">
          <mxGeometry relative="1" as="geometry" />
        </mxCell>
        <mxCell id="P949X-H24-wHW-zOsjRB-25" value="Possui" style="rhombus;whiteSpace=wrap;html=1;" parent="1" vertex="1">
          <mxGeometry x="135" y="380" width="80" height="80" as="geometry" />
        </mxCell>
        <mxCell id="P949X-H24-wHW-zOsjRB-32" style="edgeStyle=orthogonalEdgeStyle;rounded=0;orthogonalLoop=1;jettySize=auto;html=1;exitX=0;exitY=0.5;exitDx=0;exitDy=0;entryX=1;entryY=0.5;entryDx=0;entryDy=0;" parent="1" source="P949X-H24-wHW-zOsjRB-28" target="P949X-H24-wHW-zOsjRB-1" edge="1">
          <mxGeometry relative="1" as="geometry" />
        </mxCell>
        <mxCell id="P949X-H24-wHW-zOsjRB-28" value="Contém" style="rhombus;whiteSpace=wrap;html=1;" parent="1" vertex="1">
          <mxGeometry x="400" y="225" width="80" height="80" as="geometry" />
        </mxCell>
        <mxCell id="P949X-H24-wHW-zOsjRB-33" value="1" style="text;html=1;align=center;verticalAlign=middle;resizable=0;points=[];autosize=1;strokeColor=none;fillColor=none;" parent="1" vertex="1">
          <mxGeometry x="185" y="508" width="30" height="30" as="geometry" />
        </mxCell>
        <mxCell id="P949X-H24-wHW-zOsjRB-34" value="N" style="text;html=1;align=center;verticalAlign=middle;resizable=0;points=[];autosize=1;strokeColor=none;fillColor=none;" parent="1" vertex="1">
          <mxGeometry x="185" y="305" width="30" height="30" as="geometry" />
        </mxCell>
        <mxCell id="P949X-H24-wHW-zOsjRB-35" value="N" style="text;html=1;align=center;verticalAlign=middle;resizable=0;points=[];autosize=1;strokeColor=none;fillColor=none;" parent="1" vertex="1">
          <mxGeometry x="590" y="228" width="30" height="30" as="geometry" />
        </mxCell>
        <mxCell id="P949X-H24-wHW-zOsjRB-36" value="1" style="text;html=1;align=center;verticalAlign=middle;resizable=0;points=[];autosize=1;strokeColor=none;fillColor=none;" parent="1" vertex="1">
          <mxGeometry x="255" y="228" width="30" height="30" as="geometry" />
        </mxCell>
        <mxCell id="Qb6-1GNwZZT-U69SmPjN-1" value="Data&lt;br&gt;Emissão" style="ellipse;whiteSpace=wrap;html=1;aspect=fixed;" vertex="1" parent="1">
          <mxGeometry x="230" y="110" width="50" height="50" as="geometry" />
        </mxCell>
        <mxCell id="Qb6-1GNwZZT-U69SmPjN-4" value="Valor&lt;br&gt;Total" style="ellipse;whiteSpace=wrap;html=1;aspect=fixed;" vertex="1" parent="1">
          <mxGeometry x="675" y="360" width="50" height="50" as="geometry" />
        </mxCell>
      </root>
    </mxGraphModel>
  </diagram>
</mxfile>
